# xmcd
#
# Track frame offsets:
#	150
#	13825
#	25495
#	41367
#	56620
#	71791
#	88200
#	101016
#	112375
#	125481
#	140004
#	156530
#	170720
#	187176
#	204649
#	224775
#	240007
#	254621
#
# Disc length: 3688 seconds
#
# Revision: 0
# Processed by: cddbd v1.5.1PL0 Copyright (c) Steve Scherf et al.
# Submitted via: dBpowerAMP V4.0
#
DISCID=240e6612
DTITLE=Jim Pownall - 40 years of country TPR vol. 1
DYEAR=1900
DGENRE=Country
TTITLE0=01 - Bring home the teardrops
TTITLE1=02 - Behind closed doors
TTITLE2=03 - Kentucky waltz
TTITLE3=04 - Kick a little
TTITLE4=05 - Hello she lied
TTITLE5=06 - My dear love
TTITLE6=07 - After sweet memories
TTITLE7=08 - Black Berrie Boogie
TTITLE8=09 - Juke box junkie
TTITLE9=10 - Someone out in Dallas
TTITLE10=11 - Hello Mr. Pieters
TTITLE11=12 - Always on my mind
TTITLE12=13 - Carmen
TTITLE13=14 - Somewhere between
TTITLE14=15 - On my knees
TTITLE15=16 - Please don't tell me
TTITLE16=17 - Jakarta diwaktu malam
TTITLE17=18 - Tong-Tong 40 years
EXTD=
EXTT0=
EXTT1=
EXTT2=
EXTT3=
EXTT4=
EXTT5=
EXTT6=
EXTT7=
EXTT8=
EXTT9=
EXTT10=
EXTT11=
EXTT12=
EXTT13=
EXTT14=
EXTT15=
EXTT16=
EXTT17=
PLAYORDER=
